{
 "asset": {
  "version": "2.0",
  "generator": "LearningTemplate destruction showcase"
 },
 "scene": 0,
 "scenes": [
  {
   "nodes": [
    0
   ]
  }
 ],
 "nodes": [
  {
   "mesh": 0
  }
 ],
 "meshes": [
  {
   "primitives": [
    {
     "attributes": {
      "POSITION": 0
     },
     "material": 0
    }
   ]
  }
 ],
 "materials": [
  {
   "pbrMetallicRoughness": {
    "baseColorFactor": [
     0.8,
     0.16,
     0.1,
     1.0
    ]
   }
  }
 ],
 "accessors": [
  {
   "bufferView": 0,
   "componentType": 5126,
   "count": 240,
   "type": "VEC3",
   "min": [
    -0.35,
    0.0,
    -0.35
   ],
   "max": [
    0.35,
    1.0,
    0.35
   ]
  }
 ],
 "bufferViews": [
  {
   "buffer": 0,
   "byteLength": 2880
  }
 ],
 "buffers": [
  {
   "byteLength": 2880,
   "uri": "data:application/octet-stream;base64,"
  }
 ]
}
