{
 "asset": {
  "version": "2.0",
  "generator": "anim-crowd-face make_testhead.py"
 },
 "scene": 0,
 "scenes": [
  {
   "nodes": [
    0,
    4
   ]
  }
 ],
 "nodes": [
  {
   "name": "root",
   "translation": [
    0.0,
    0.0,
    0.0
   ],
   "children": [
    1
   ]
  },
  {
   "name": "head",
   "translation": [
    0.0,
    1.6,
    0.0
   ],
   "children": [
    2,
    3
   ]
  },
  {
   "name": "eye.l",
   "translation": [
    0.055,
    0.03499999999999992,
    0.125
   ]
  },
  {
   "name": "eye.r",
   "translation": [
    -0.055,
    0.03499999999999992,
    0.125
   ]
  },
  {
   "name": "TestHead",
   "mesh": 0,
   "skin": 0
  }
 ],
 "meshes": [
  {
   "name": "TestHead",
   "primitives": [
    {
     "attributes": {
      "POSITION": 0,
      "NORMAL": 1,
      "JOINTS_0": 2,
      "WEIGHTS_0": 3
     },
     "indices": 4,
     "targets": [
      {
       "POSITION": 5
      },
      {
       "POSITION": 6
      },
      {
       "POSITION": 7
      },
      {
       "POSITION": 8
      },
      {
       "POSITION": 9
      },
      {
       "POSITION": 10
      },
      {
       "POSITION": 11
      }
     ]
    }
   ],
   "weights": [
    0.0,
    0.0,
    0.0,
    0.0,
    0.0,
    0.0,
    0.0
   ],
   "extras": {
    "targetNames": [
     "jawOpen",
     "mouthWide",
     "mouthRound",
     "mouthClose",
     "smile",
     "blinkLeft",
     "blinkRight"
    ]
   }
  }
 ],
 "skins": [
  {
   "joints": [
    0,
    1,
    2,
    3
   ],
   "inverseBindMatrices": 12,
   "skeleton": 0
  }
 ],
 "animations": [
  {
   "name": "Talk",
   "samplers": [
    {
     "input": 13,
     "output": 14,
     "interpolation": "LINEAR"
    }
   ],
   "channels": [
    {
     "sampler": 0,
     "target": {
      "node": 4,
      "path": "weights"
     }
    }
   ]
  },
  {
   "name": "Idle",
   "samplers": [
    {
     "input": 15,
     "output": 16,
     "interpolation": "LINEAR"
    }
   ],
   "channels": [
    {
     "sampler": 0,
     "target": {
      "node": 1,
      "path": "rotation"
     }
    }
   ]
  }
 ],
 "accessors": [
  {
   "bufferView": 0,
   "componentType": 5126,
   "count": 659,
   "type": "VEC3",
   "min": [
    -0.15,
    1.4500000000000002,
    -0.15
   ],
   "max": [
    0.15,
    1.75,
    0.153
   ]
  },
  {
   "bufferView": 1,
   "componentType": 5126,
   "count": 659,
   "type": "VEC3",
   "min": [
    -1.0,
    -1.0,
    -1.0
   ],
   "max": [
    1.0,
    1.0,
    1.0
   ]
  },
  {
   "bufferView": 2,
   "componentType": 5123,
   "count": 659,
   "type": "VEC4"
  },
  {
   "bufferView": 3,
   "componentType": 5126,
   "count": 659,
   "type": "VEC4"
  },
  {
   "bufferView": 4,
   "componentType": 5125,
   "count": 3456,
   "type": "SCALAR"
  },
  {
   "bufferView": 5,
   "componentType": 5126,
   "count": 659,
   "type": "VEC3",
   "min": [
    0.0,
    -0.02500000000000001,
    0.0
   ],
   "max": [
    0.0,
    -0.0,
    0.005000000000000001
   ]
  },
  {
   "bufferView": 6,
   "componentType": 5126,
   "count": 659,
   "type": "VEC3",
   "min": [
    -0.019318516525781374,
    0.0,
    0.0
   ],
   "max": [
    0.020000000000000004,
    0.0,
    0.0
   ]
  },
  {
   "bufferView": 7,
   "componentType": 5126,
   "count": 659,
   "type": "VEC3",
   "min": [
    -0.014403332938339057,
    0.0,
    0.0
   ],
   "max": [
    0.014403332938339057,
    0.0,
    0.015000000000000003
   ]
  },
  {
   "bufferView": 8,
   "componentType": 5126,
   "count": 659,
   "type": "VEC3",
   "min": [
    0.0,
    0.0,
    0.0
   ],
   "max": [
    0.0,
    0.010000000000000002,
    0.0
   ]
  },
  {
   "bufferView": 9,
   "componentType": 5126,
   "count": 659,
   "type": "VEC3",
   "min": [
    0.0,
    0.0,
    0.0
   ],
   "max": [
    0.0,
    0.009602221958892706,
    0.0
   ]
  },
  {
   "bufferView": 10,
   "componentType": 5126,
   "count": 659,
   "type": "VEC3",
   "min": [
    0.0,
    -0.02380000000000002,
    0.0
   ],
   "max": [
    0.0,
    0.02380000000000002,
    0.0
   ]
  },
  {
   "bufferView": 11,
   "componentType": 5126,
   "count": 659,
   "type": "VEC3",
   "min": [
    0.0,
    -0.02380000000000002,
    0.0
   ],
   "max": [
    0.0,
    0.02380000000000002,
    0.0
   ]
  },
  {
   "bufferView": 12,
   "componentType": 5126,
   "count": 4,
   "type": "MAT4"
  },
  {
   "bufferView": 13,
   "componentType": 5126,
   "count": 31,
   "type": "SCALAR",
   "min": [
    0.0
   ],
   "max": [
    2.0
   ]
  },
  {
   "bufferView": 14,
   "componentType": 5126,
   "count": 217,
   "type": "SCALAR"
  },
  {
   "bufferView": 15,
   "componentType": 5126,
   "count": 31,
   "type": "SCALAR",
   "min": [
    0.0
   ],
   "max": [
    2.0
   ]
  },
  {
   "bufferView": 16,
   "componentType": 5126,
   "count": 31,
   "type": "VEC4"
  }
 ],
 "bufferViews": [
  {
   "buffer": 0,
   "byteOffset": 0,
   "byteLength": 7908,
   "target": 34962
  },
  {
   "buffer": 0,
   "byteOffset": 7908,
   "byteLength": 7908,
   "target": 34962
  },
  {
   "buffer": 0,
   "byteOffset": 15816,
   "byteLength": 5272,
   "target": 34962
  },
  {
   "buffer": 0,
   "byteOffset": 21088,
   "byteLength": 10544,
   "target": 34962
  },
  {
   "buffer": 0,
   "byteOffset": 31632,
   "byteLength": 13824,
   "target": 34963
  },
  {
   "buffer": 0,
   "byteOffset": 45456,
   "byteLength": 7908,
   "target": 34962
  },
  {
   "buffer": 0,
   "byteOffset": 53364,
   "byteLength": 7908,
   "target": 34962
  },
  {
   "buffer": 0,
   "byteOffset": 61272,
   "byteLength": 7908,
   "target": 34962
  },
  {
   "buffer": 0,
   "byteOffset": 69180,
   "byteLength": 7908,
   "target": 34962
  },
  {
   "buffer": 0,
   "byteOffset": 77088,
   "byteLength": 7908,
   "target": 34962
  },
  {
   "buffer": 0,
   "byteOffset": 84996,
   "byteLength": 7908,
   "target": 34962
  },
  {
   "buffer": 0,
   "byteOffset": 92904,
   "byteLength": 7908,
   "target": 34962
  },
  {
   "buffer": 0,
   "byteOffset": 100812,
   "byteLength": 256
  },
  {
   "buffer": 0,
   "byteOffset": 101068,
   "byteLength": 124
  },
  {
   "buffer": 0,
   "byteOffset": 101192,
   "byteLength": 868
  },
  {
   "buffer": 0,
   "byteOffset": 102060,
   "byteLength": 124
  },
  {
   "buffer": 0,
   "byteOffset": 102184,
   "byteLength": 496
  }
 ],
 "buffers": [
  {
   "byteLength": 102680,
   "uri": "data:application/octet-stream;base64,"
  }
 ]
}